<?xml version="1.0" standalone="no"?><!DOCTYPE svg PUBLIC "-//W3C//DTD SVG 1.1//EN" "http://www.w3.org/Graphics/SVG/1.1/DTD/svg11.dtd"><svg t="1730380368167" class="icon" viewBox="0 0 1024 1024" version="1.1" xmlns="http://www.w3.org/2000/svg" p-id="21410" xmlns:xlink="http://www.w3.org/1999/xlink" width="200" height="200"><path d="M730.112 588.8H716.8l-33.792-74.752h2.048c39.936 0 73.728-32.768 73.728-73.728s-32.768-73.728-73.728-73.728c-9.216 0-18.432 2.048-26.624 5.12L633.856 337.92c-21.504-29.696-55.296-49.152-91.136-50.176-17.408 0-32.768 3.072-40.96 15.36-40.96 59.392-125.952 235.52-149.504 283.648h-13.312c-18.432 0-33.792 15.36-33.792 33.792v78.848c0 18.432 15.36 33.792 33.792 33.792h393.216c18.432 0 33.792-15.36 33.792-33.792v-78.848c-2.048-17.408-17.408-31.744-35.84-31.744z" fill="#FFFFFF" p-id="21411"></path><path d="M730.112 755.712H336.896c-29.696 0-54.272-24.576-54.272-54.272v-78.848c0-29.696 24.576-54.272 54.272-54.272h1.024c29.696-62.464 106.496-218.112 145.408-274.432 8.192-11.264 24.576-25.6 58.368-24.576 40.96 1.024 81.92 22.528 107.52 58.368l16.384 22.528c6.144-1.024 12.288-2.048 18.432-2.048 51.2 0 94.208 41.984 94.208 94.208 0 41.984-27.648 77.824-65.536 89.088l17.408 37.888c29.696 0 54.272 24.576 54.272 54.272v78.848c0 28.672-24.576 53.248-54.272 53.248zM336.896 609.28c-7.168 0-13.312 6.144-13.312 13.312v78.848c0 7.168 6.144 13.312 13.312 13.312h393.216c7.168 0 13.312-6.144 13.312-13.312v-78.848c0-7.168-6.144-13.312-13.312-13.312H716.8c-8.192 0-15.36-5.12-18.432-12.288L664.576 522.24c-3.072-6.144-2.048-14.336 2.048-19.456 4.096-6.144 10.24-9.216 17.408-9.216h2.048c28.672 0 52.224-23.552 52.224-53.248s-23.552-53.248-53.248-53.248c-6.144 0-13.312 1.024-19.456 4.096-8.192 3.072-18.432 1.024-24.576-7.168l-24.576-33.792c-18.432-25.6-47.104-40.96-75.776-40.96-8.192 0-19.456 1.024-23.552 7.168C485.376 362.496 419.84 491.52 369.664 596.992c-3.072 7.168-10.24 11.264-18.432 11.264h-14.336z" fill="#735d8d" p-id="21412" data-spm-anchor-id="a313x.search_index.0.i7.72333a81OM1V6G" class="selected"></path><path d="M685.056 440.32m-73.728 0a73.728 73.728 0 1 0 147.456 0 73.728 73.728 0 1 0-147.456 0Z" fill="#FDFDFE" p-id="21413"></path><path d="M628.736 394.24c8.192-9.216 17.408-17.408 29.696-21.504l-24.576-33.792c-21.504-29.696-55.296-49.152-91.136-50.176-17.408 0-32.768 3.072-40.96 15.36-47.104 68.608-155.648 295.936-155.648 295.936h377.856l-95.232-205.824z" fill="#ED1B2F" p-id="21414"></path><path d="M730.112 735.232H336.896c-18.432 0-33.792-15.36-33.792-33.792v-78.848c0-18.432 15.36-33.792 33.792-33.792h393.216c18.432 0 33.792 15.36 33.792 33.792v78.848c0 18.432-15.36 33.792-33.792 33.792z" fill="#FDFDFE" p-id="21415"></path></svg>